<?xml version="1.0" standalone="no"?>
<!DOCTYPE svg PUBLIC "-//W3C//DTD SVG 20010904//EN"
 "http://www.w3.org/TR/2001/REC-SVG-20010904/DTD/svg10.dtd">
<svg version="1.0" xmlns="http://www.w3.org/2000/svg"
 width="260.000000pt" height="260.000000pt" viewBox="0 0 260.000000 260.000000"
 preserveAspectRatio="xMidYMid meet">
<metadata>
Created by potrace 1.11, written by Peter Selinger 2001-2013
</metadata>
<g transform="translate(0.000000,260.000000) scale(0.100000,-0.100000)"
fill="#000000" stroke="none">
<path d="M1951 2388 c-14 -23 -177 -303 -213 -368 -11 -19 -98 -170 -193 -335
-96 -165 -176 -307 -180 -315 -5 -13 65 -15 595 -14 330 0 602 3 606 6 3 4
-18 46 -47 95 -28 48 -66 113 -82 143 -17 30 -45 79 -64 108 -18 29 -33 55
-33 58 0 2 -40 73 -89 157 -126 216 -123 210 -195 337 -89 158 -88 156 -105
128z m79 -501 l0 -163 -60 0 c-59 0 -60 0 -60 28 -1 15 -1 84 -1 153 0 69 0
130 1 135 0 6 27 10 60 10 l60 0 0 -163z m0 -347 l0 -60 -59 0 -59 0 -3 33
c-2 17 -3 44 -1 60 3 26 5 27 63 27 l59 0 0 -60z"/>
<path d="M995 2258 c-428 -49 -795 -373 -891 -787 -113 -481 117 -963 561
-1178 162 -78 287 -104 475 -98 149 4 247 24 368 74 334 139 579 452 629 804
l5 38 -123 -3 -123 -3 -18 -74 c-63 -256 -275 -481 -530 -559 -448 -138 -913
135 -1012 595 -9 44 -13 110 -12 188 3 104 7 132 35 215 86 256 264 429 531
518 134 44 352 38 484 -14 25 -9 42 -12 49 -5 23 23 116 196 108 204 -14 14
-143 55 -226 72 -95 19 -214 24 -310 13z"/>
<path d="M990 1556 l0 -283 -34 -39 c-326 -374 -320 -364 -252 -412 17 -12 53
-41 79 -64 l49 -43 36 41 c41 45 227 262 312 364 l55 65 -1 320 c-1 176 -2
323 -3 328 -1 4 -55 7 -121 7 l-120 0 0 -284z"/>
</g>
</svg>
