<svg version="1.0" xmlns="http://www.w3.org/2000/svg" width="933.333" height="933.333" viewBox="0 0 700 700"><path d="M255.9 15.8l-3.6.3.1 27.1.1 27 17 6.9 17 6.8 17.8.1c16.1 0 17.7.2 17.8 1.7.1 2.3.1 15.4 0 17-.1 1.1-1.6 1.5-10.1 2.8-1.9.2-4.6.7-6 1-1.4.2-5 1-8 1.6-14.2 2.9-40.5 11-51.9 16.1-24.8 11-41.6 20.6-60.1 34.2-5.2 3.9-10 7.5-10.6 8.1-.6.5-3.5 3-6.5 5.5-2.9 2.5-7.8 6.9-10.8 9.7l-5.6 5.2 20 20.1c11 11 20.2 20 20.5 20 .3 0 2.1-1.4 4-3.2 16.1-14.6 25.6-21.8 41.6-31.6 18.3-11.1 47.5-23.2 64.9-26.8 25.5-5.2 35.5-6.3 58.5-5.9 10.7.2 21.3.6 23.5 1 3.5.5 11.1 1.7 19.9 3.2 1.5.2 8.3 2 15 3.8C501.2 189.6 564.2 254 585 335.3c1.6 6.5 3.5 15.1 4.1 19 .6 4 1.2 8.3 1.4 9.7.8 4.7 1.8 22.6 1.8 31.5-.1 22-4.4 47.7-11.7 69.8-24.5 74.3-84.2 131.6-158.9 152.6-5.8 1.6-12.2 3.2-14.2 3.5-2.1.4-4 .8-4.4 1-.3.2-3.1.7-6.1 1.1-3 .3-6.2.8-7 1-7.3 1.8-37.7 2.6-50.5 1.4-10.5-1-17.8-1.9-20.1-2.4-33.4-6.8-55.8-15.1-80.4-29.8-48.4-29-86.3-76.4-102.9-129-3.9-12.4-7.4-25.8-6.8-26.4.3-.2 10.5-.4 22.6-.4H174l-1.2-2.2c-1.9-3.6-18-31.7-42.3-73.7-12.6-21.7-24.7-42.8-26.9-46.7-2.3-4-4.3-7.3-4.6-7.3-.3 0-8.8 14.5-19 32.2-10.2 17.6-25.1 43.6-33.2 57.7C38.7 412 31.6 424.2 31 425c-.5.8-2.3 4.1-4 7.3l-3 5.7h17.7c9.8-.1 20.3-.1 23.4-.1l5.6.1 1.2 7.2c5.5 31.4 19.2 67.8 35.8 95.3 3 4.9 5.9 9.9 6.6 11 2.9 4.7 17.8 24.6 23.4 31 12.5 14.5 28.9 30.2 40.8 39 2.2 1.7 4.6 3.6 5.4 4.3 2.2 2.1 20.8 14.4 28.6 18.9 12.8 7.5 28 14.7 41 19.7 3.9 1.5 7.9 3.1 9 3.6 7.4 3.1 34.9 10 49.3 12.4 22.9 3.9 57.8 4.8 77.7 2.1 2.2-.3 6-.8 8.5-1.1 20.3-2.5 44.7-8.8 66-17.3 31.7-12.4 61.2-30.3 85.5-51.7 15.9-14 31.2-30.3 41-43.8 1.6-2.3 3.2-4.3 3.5-4.6 3.7-3.5 20.5-31.6 27.4-46.1 11.8-24.7 22.9-60.6 25.1-81.7.2-2 .6-5.1.9-6.7 3.4-20.9 2.7-60.3-1.5-84-.6-3.3-1.3-7.4-1.6-9-.9-5.6-7.2-29-10.1-37.5-32-93.2-109.9-164.8-205.1-188.4-7.5-1.9-16.5-3.9-20.1-4.5-3.6-.5-8.2-1.3-10.2-1.6-2.1-.3-3.8-.9-3.9-1.3 0-.4-.1-4.8-.2-9.7l-.1-9 19-.5 18.9-.6 12.5-5.2c6.9-2.9 14.1-5.9 16.1-6.8l3.5-1.5v-27c0-26.5 0-26.9-2-27-6.9-.2-203.8-.3-206.7-.1zM554.9 92.5c-10.1 10.2-18.2 19.1-18 19.8.2.7 1.8 6.5 3.6 13l3.2 11.8 34.9 34.9c19.2 19.2 35.6 35 36.4 35 .8 0 6.6 1.5 12.8 3.4l11.3 3.4 18.5-18.6 18.5-18.5-2.3-2.4c-2.2-2.4-99.5-99.5-100.2-100.1-.1-.1-8.6 8.1-18.7 18.3z"/><path d="M358.5 299.1c0 50.5.3 92.1.7 92.5.5.4 40.9.8 89.9.8l89.1.1-.7-10.5c-.4-5.8-.7-11.2-.7-12 0-.8-.4-3.3-.8-5.5-.5-2.2-1.2-6-1.5-8.5-.4-2.4-.8-4.7-1-5.1-.2-.3-.7-1.9-.9-3.5-3.1-16.8-18.5-50.9-29.3-64.4-10.5-13.3-14.3-17.7-20.9-24.2-4.4-4.2-10.8-10-14.4-12.8-3.6-2.8-7.2-5.7-8.2-6.5-3.3-2.7-21-12.7-28.5-16.1-20.8-9.5-43.9-14.9-68.3-15.8l-4.5-.2v91.7z"/></svg>